<?xml version="1.0" standalone="no"?>
<!DOCTYPE svg PUBLIC "-//W3C//DTD SVG 20010904//EN"
 "http://www.w3.org/TR/2001/REC-SVG-20010904/DTD/svg10.dtd">
<svg version="1.0" xmlns="http://www.w3.org/2000/svg"
 width="700.000000pt" height="700.000000pt" viewBox="0 0 700.000000 700.000000"
 preserveAspectRatio="xMidYMid meet">
<metadata>
Created by potrace 1.11, written by Peter Selinger 2001-2013
</metadata>
<g transform="translate(0.000000,700.000000) scale(0.100000,-0.100000)"
fill="#000000" stroke="none">
<path d="M2612 6984 c-9 -17 -23 -71 -24 -91 0 -5 -4 -18 -9 -31 -5 -13 -11
-35 -14 -50 -3 -15 -7 -38 -10 -52 -3 -14 -8 -54 -11 -90 -48 -514 127 -825
544 -967 68 -23 229 -57 310 -66 23 -2 45 -6 47 -9 2 -2 -2 -28 -10 -58 -20
-81 -35 -201 -38 -307 0 -29 -2 -53 -3 -53 -1 0 -49 22 -106 49 -140 67 -261
109 -393 137 -540 115 -1111 -30 -1545 -395 -208 -175 -403 -426 -531 -686
-97 -194 -182 -471 -205 -660 -2 -24 -7 -53 -9 -65 -2 -13 -7 -62 -10 -109 -3
-47 -8 -96 -11 -109 -4 -22 -4 -22 78 -15 241 20 418 -9 589 -98 291 -152 475
-414 525 -749 5 -35 5 -220 0 -228 -2 -4 -6 -30 -10 -57 -7 -65 -39 -162 -82
-253 -73 -152 -180 -279 -322 -380 -34 -24 -202 -113 -202 -107 0 4 -122 -44
-128 -50 -2 -2 22 -54 53 -115 161 -322 346 -590 549 -797 124 -127 231 -212
401 -321 49 -31 208 -102 290 -130 81 -27 121 -37 235 -58 55 -10 343 -13 391
-4 24 5 58 10 76 13 86 13 306 109 348 151 9 9 19 16 23 16 4 0 27 18 52 40
25 22 48 40 52 40 4 0 15 -8 25 -18 28 -28 153 -114 208 -144 64 -33 177 -74
235 -83 25 -4 54 -10 65 -12 35 -9 331 -11 376 -3 24 5 60 11 79 14 76 12 98
18 183 47 637 212 1164 870 1497 1866 50 152 131 440 146 523 2 14 11 59 19
100 8 41 17 89 20 105 2 17 7 39 9 50 2 11 7 43 10 70 4 28 9 64 12 80 34 230
36 556 4 775 -26 183 -65 330 -134 508 -190 492 -571 908 -1027 1121 -106 50
-283 110 -374 127 -11 2 -33 6 -48 10 -30 6 -34 7 -132 19 -87 11 -263 12
-358 3 -219 -22 -398 -72 -602 -168 -59 -28 -108 -50 -110 -50 -4 0 2 119 10
182 51 453 383 860 820 1006 116 38 175 50 298 59 75 5 87 8 88 24 0 11 1 46
1 79 0 33 -1 72 -1 86 l-1 27 -82 -7 c-115 -8 -151 -14 -243 -36 -255 -60
-471 -179 -667 -369 -69 -66 -78 -72 -78 -50 -2 75 -31 203 -67 292 -94 231
-299 384 -608 455 -130 30 -145 32 -306 38 -137 6 -148 5 -157 -12z"/>
</g>
</svg>
